<?xml version="1.0" encoding="utf-8"?>
<!-- Generator: Adobe Illustrator 24.2.1, SVG Export Plug-In . SVG Version: 6.00 Build 0)  -->
<svg version="1.1" id="Layer_1" xmlns="http://www.w3.org/2000/svg" xmlns:xlink="http://www.w3.org/1999/xlink" x="0px" y="0px"
	 viewBox="0 0 300 300" style="enable-background:new 0 0 300 300;" xml:space="preserve">
<g>
	<path d="M38.5,198.6c-4.7-3.2-8.4-7.7-11.1-13.5c-2.7-5.8-4-12.6-4-20.3v-0.1c0-7.8,1.3-14.6,4-20.3c2.7-5.8,6.4-10.3,11.1-13.5
		c4.7-3.2,10.2-4.8,16.4-4.8c5.9,0,11.1,1.5,15.6,4.6c4.5,3.1,7.8,7.2,9.9,12.4h0.3V98.5h9.4v103.6h-9.4v-15.6h-0.4
		c-2.2,5.2-5.4,9.3-9.9,12.3c-4.4,3.1-9.6,4.6-15.5,4.6C48.8,203.5,43.3,201.9,38.5,198.6z M69.3,191.2c3.6-2.5,6.4-6.1,8.5-10.6
		c2-4.6,3.1-9.8,3.1-15.8v-0.1c0-6-1-11.2-3.1-15.8c-2.1-4.5-4.9-8.1-8.5-10.6c-3.6-2.5-7.7-3.8-12.4-3.8c-4.8,0-9,1.2-12.5,3.7
		c-3.6,2.5-6.3,6-8.3,10.5c-1.9,4.5-2.9,9.8-2.9,16v0.1c0,6.1,1,11.5,2.9,16c1.9,4.5,4.7,8.1,8.3,10.5c3.6,2.5,7.7,3.7,12.5,3.7
		C61.5,195,65.7,193.7,69.3,191.2z"/>
	<path d="M118.8,198.6c-4.7-3.2-8.4-7.7-11.1-13.5c-2.7-5.8-4-12.6-4-20.3v-0.1c0-7.8,1.3-14.6,4-20.3c2.7-5.8,6.4-10.3,11.1-13.5
		c4.7-3.2,10.2-4.8,16.4-4.8c5.9,0,11.1,1.5,15.6,4.6c4.5,3.1,7.8,7.2,9.9,12.4h0.3V98.5h9.4v103.6h-9.4v-15.6h-0.4
		c-2.2,5.2-5.4,9.3-9.9,12.3c-4.4,3.1-9.6,4.6-15.5,4.6C129,203.5,123.5,201.9,118.8,198.6z M149.6,191.2c3.6-2.5,6.4-6.1,8.5-10.6
		c2-4.6,3.1-9.8,3.1-15.8v-0.1c0-6-1-11.2-3.1-15.8c-2.1-4.5-4.9-8.1-8.5-10.6c-3.6-2.5-7.7-3.8-12.4-3.8c-4.8,0-9,1.2-12.5,3.7
		c-3.6,2.5-6.3,6-8.3,10.5c-1.9,4.5-2.9,9.8-2.9,16v0.1c0,6.1,1,11.5,2.9,16c1.9,4.5,4.7,8.1,8.3,10.5c3.6,2.5,7.7,3.7,12.5,3.7
		C141.8,195,145.9,193.7,149.6,191.2z"/>
	<path d="M196.9,200.7c-3.7-1.8-6.6-4.4-8.7-7.8c-2.1-3.3-3.1-7.2-3.1-11.5v-0.1c0-6.4,2.3-11.4,7-15.1c4.6-3.7,11.2-5.8,19.8-6.4
		l28-1.8v7.4l-26.8,1.8c-5.8,0.4-10.3,1.9-13.5,4.3c-3.2,2.4-4.8,5.7-4.8,9.8v0.1c0,4.1,1.6,7.4,4.7,9.9c3.2,2.5,7.2,3.8,12.3,3.8
		c4.4,0,8.4-0.9,11.9-2.8c3.5-1.8,6.3-4.4,8.4-7.6c2.1-3.2,3.1-6.8,3.1-10.8v-22.2c0-5.4-1.6-9.6-4.8-12.7
		c-3.2-3.1-7.8-4.6-13.6-4.6c-5.4,0-9.8,1.2-13.2,3.7c-3.4,2.4-5.5,5.8-6.4,10l-0.1,0.7h-9.1l0.1-0.9c0.5-4.3,1.9-8.1,4.4-11.4
		c2.4-3.3,5.7-5.9,9.9-7.8c4.2-1.9,9-2.8,14.6-2.8c5.7,0,10.6,1,14.8,3.1c4.1,2,7.3,4.9,9.6,8.6c2.3,3.7,3.4,8.1,3.4,13.2v51.1h-9.5
		v-13.7h-0.2c-1.3,3-3.3,5.6-5.8,7.9c-2.5,2.2-5.5,4-8.8,5.3c-3.3,1.3-6.8,1.9-10.5,1.9C204.9,203.5,200.6,202.5,196.9,200.7z"/>
	<path d="M263.1,201.1c-1.3-1.3-1.9-2.9-1.9-4.7s0.6-3.4,1.9-4.7c1.3-1.3,2.9-1.9,4.7-1.9c1.9,0,3.4,0.6,4.7,1.9
		c1.3,1.3,1.9,2.8,1.9,4.7s-0.6,3.4-1.9,4.7c-1.3,1.3-2.8,1.9-4.7,1.9C266,203,264.4,202.4,263.1,201.1z"/>
</g>
</svg>
